<svg height="512" viewBox="0 0 64 64" width="512" xmlns="http://www.w3.org/2000/svg"><g id="flat"><path d="m61 15h-58l2-7h54z" fill="#b11e48"/><path d="m8 19h48v36h-48z" fill="#eae9e1"/><path d="m12 33h20v18h-20z" fill="#195c85"/><path d="m8 19v8a2 2 0 0 0 2 2h2a2 2 0 0 0 2-2v-8z" fill="#dd3e46"/><path d="m14 19v8a2 2 0 0 0 2 2h2a2 2 0 0 0 2-2v-8z" fill="#b11e48"/><path d="m20 19v8a2 2 0 0 0 2 2h2a2 2 0 0 0 2-2v-8z" fill="#dd3e46"/><path d="m26 19v8a2 2 0 0 0 2 2h2a2 2 0 0 0 2-2v-8z" fill="#b11e48"/><path d="m32 19v8a2 2 0 0 0 2 2h2a2 2 0 0 0 2-2v-8z" fill="#dd3e46"/><path d="m38 19v8a2 2 0 0 0 2 2h2a2 2 0 0 0 2-2v-8z" fill="#b11e48"/><path d="m44 19v8a2 2 0 0 0 2 2h2a2 2 0 0 0 2-2v-8z" fill="#dd3e46"/><path d="m50 19v8a2 2 0 0 0 2 2h2a2 2 0 0 0 2-2v-8z" fill="#b11e48"/><path d="m27 40h-3v-3h-4v3h-3v4h3v3h4v-3h3z" fill="#f4f4e6"/><path d="m6 55h52v4h-52z" fill="#195c85"/><path d="m37 33h14v22h-14z" fill="#195c85"/><path d="m37 51h14v4h-14z" fill="#dd3e46"/><path d="m41 37h6v10h-6z" fill="#f4f4e6"/><path d="m5 15h54v4h-54z" fill="#f98c96"/><path d="m40 8a3 3 0 0 0 -3-3h-5v6h5a3 3 0 0 0 3-3z" fill="#f9bb4b"/><path d="m24 8a3 3 0 0 1 3-3h5v6h-5a3 3 0 0 1 -3-3z" fill="#55b56a"/></g></svg>